{"title":"Big Brother UK S14 Launch Show Day 2 DSR XviD","uid":8575274,"size":690446336,"categoryP":"video","categoryS":"tv_shows","magnet":"?xt=urn:btih:984b79c46550e34fddf014001fd279f36d337e49&amp;dn=Big+Brother+UK+S14+Launch+Show+Day+2+DSR+XviD&amp;tr=udp%3A%2F%2Ftracker.openbittorrent.com%3A80&amp;tr=udp%3A%2F%2Fopen.demonii.com%3A1337&amp;tr=udp%3A%2F%2Ftracker.coppersurfer.tk%3A6969&amp;tr=udp%3A%2F%2Fexodus.desync.com%3A6969","seeders":0,"leechers":1,"uploader":"upsdave","files":-1,"time":1371256955,"description":"Format                                   : AVI\nFormat/Info                              : Audio Video Interleave\nFile size                                : 658 MiB\nDuration                                 : 1h 9mn\nOverall bit rate                         : 1 334 Kbps\n\nVideo\nID                                       : 0\nFormat                                   : MPEG-4 Visual\nFormat profile                           : Advanced Simple@L5\nFormat settings, BVOP                    : 2\nFormat settings, QPel                    : No\nFormat settings, GMC                     : No warppoints\nFormat settings, Matrix                  : Default (H.263)\nCodec ID                                 : XVID\nCodec ID/Hint                            : XviD\nDuration                                 : 1h 9mn\nBit rate                                 : 1 194 Kbps\nWidth                                    : 640 pixels\nHeight                                   : 368 pixels\nDisplay aspect ratio                     : 1.739\nFrame rate                               : 25.000 fps\nColor space                              : YUV\nChroma subsampling                       : 4:2:0\nBit depth                                : 8 bits\nScan type                                : Progressive\nCompression mode                         : Lossy\nBits/(Pixel*Frame)                       : 0.203\nStream size                              : 589 MiB (89%)\nWriting library                          : XviD 1.1.2 (UTC 2006-11-01)\n\nAudio\nID                                       : 1\nFormat                                   : MPEG Audio\nFormat version                           : Version 1\nFormat profile                           : Layer 3\nMode                                     : Joint stereo\nMode extension                           : MS Stereo\nCodec ID                                 : 55\nCodec ID/Hint                            : MP3\nDuration                                 : 1h 9mn\nBit rate mode                            : Constant\nBit rate                                 : 128 Kbps\nChannel(s)                               : 2 channels\nSampling rate                            : 44.1 KHz\nCompression mode                         : Lossy\nStream size                              : 63.2 MiB (10%)\nAlignment                                : Aligned on interleaves\nInterleave, duration                     : 26 ms (0.65 video frame)\nInterleave, preload duration             : 809 ms","torrent":{"xt":"urn:btih:984b79c46550e34fddf014001fd279f36d337e49","amp;dn":"Big+Brother+UK+S14+Launch+Show+Day+2+DSR+XviD","amp;tr":["udp%3A%2F%2Ftracker.openbittorrent.com%3A80","udp%3A%2F%2Fopen.demonii.com%3A1337","udp%3A%2F%2Ftracker.coppersurfer.tk%3A6969","udp%3A%2F%2Fexodus.desync.com%3A6969"],"infoHash":"984b79c46550e34fddf014001fd279f36d337e49","infoHashBuffer":{"type":"Buffer","data":[152,75,121,196,101,80,227,79,221,240,20,0,31,210,121,243,109,51,126,73]},"announce":[],"urlList":[]}}